# xmcd
#
# Track frame offsets: 
#        150
#        19417
#        35407
#        58319
#        77273
#        97337
#        115880
#        130698
#        160163
#        179572
#        199985
#        223104
#        237520
#        255997
#
# Disc length: 3803 seconds
#
# Revision: 0
# Processed by: cddbd v1.5.2PL0 Copyright (c) Steve Scherf et al.
# Submitted via: ExactAudioCopy v1.0b4
#
DISCID=c90ed90e
DTITLE=Climax Blues Band - Broke Heart Blues
DYEAR=2015
DGENRE=Blues Rock
TTITLE0=Blue Monday
TTITLE1=Cruel
TTITLE2=Gossip Is Gold
TTITLE3=Miss You So
TTITLE4=The Rubicon
TTITLE5=Lonely Avenue
TTITLE6=Gotta Get It Right
TTITLE7=Bluesong
TTITLE8=Broke Heart Blues
TTITLE9=Miracle
TTITLE10=I Feel So Blue
TTITLE11=You Ain’t Got The Right
TTITLE12=Oxygen
TTITLE13=Bluesong acoustic
EXTD=
EXTT0=
EXTT1=
EXTT2=
EXTT3=
EXTT4=
EXTT5=
EXTT6=
EXTT7=
EXTT8=
EXTT9=
EXTT10=
EXTT11=
EXTT12=
EXTT13=
PLAYORDER=
